<svg width="18" height="19" viewBox="0 0 18 19" fill="none" xmlns="http://www.w3.org/2000/svg">
<path d="M16.6 18.6792L10.3 12.1415C9.8 12.5566 9.225 12.8852 8.575 13.1274C7.925 13.3695 7.23333 13.4906 6.5 13.4906C4.68333 13.4906 3.14583 12.8377 1.8875 11.5318C0.629167 10.226 0 8.6305 0 6.74528C0 4.86006 0.629167 3.26454 1.8875 1.95873C3.14583 0.652909 4.68333 0 6.5 0C8.31667 0 9.85417 0.652909 11.1125 1.95873C12.3708 3.26454 13 4.86006 13 6.74528C13 7.50629 12.8833 8.22406 12.65 8.89859C12.4167 9.57311 12.1 10.1698 11.7 10.6887L18 17.2264L16.6 18.6792ZM6.5 11.4151C7.75 11.4151 8.8125 10.9611 9.6875 10.0531C10.5625 9.14505 11 8.04245 11 6.74528C11 5.44811 10.5625 4.34552 9.6875 3.4375C8.8125 2.52948 7.75 2.07547 6.5 2.07547C5.25 2.07547 4.1875 2.52948 3.3125 3.4375C2.4375 4.34552 2 5.44811 2 6.74528C2 8.04245 2.4375 9.14505 3.3125 10.0531C4.1875 10.9611 5.25 11.4151 6.5 11.4151Z" fill="black"/>
</svg>
