<svg width="100" height="50" viewBox="0 0 100 50" fill="none" xmlns="http://www.w3.org/2000/svg">
<path d="M50.5918 35.113C48.2751 34.1834 46.3418 33.3266 45.0918 32.6153C54.9418 33.8063 69.6752 34.9642 93.4377 32.0198C93.4377 32.0198 95.1669 34.1305 96.1378 37.3924C95.9461 37.5049 95.7753 37.6041 95.5544 37.7232C92.5628 39.2847 87.4377 41.1472 79.9794 41.1472C76.8335 41.1472 73.5044 40.8164 70.0919 40.1514C68.8127 39.8967 67.5918 39.642 66.4043 39.3674C62.7415 38.5099 59.1171 37.5522 55.5377 36.4959C53.896 36.0261 52.246 35.5629 50.5918 35.113ZM26.9667 39.0564C24.9803 39.2666 23.0125 39.576 21.0751 39.9827C13.0459 41.6269 7.00419 43.6449 6.94169 43.6648L5.26668 44.2272L3.75001 40.737L0 41.7592C0 41.7592 4.72501 46.1029 5.55418 47.5354L6.72085 50C6.72085 50 21.7209 43.6284 43.5376 44.5911C48.4876 44.8094 52.8335 45.9144 52.8335 45.9144C52.8335 45.9144 43.946 41.4416 42.1626 41.0083C37.1626 40.0654 32.0793 39.4137 26.9584 39.0597L26.9667 39.0564ZM99.8294 36.6249C99.8294 36.6249 98.7294 37.6173 96.4961 38.7851C92.0961 41.0844 83.2794 44.0386 69.671 41.3953C68.421 41.1472 67.171 40.8826 65.9335 40.6014C53.5252 37.7894 46.1501 34.1536 29.5042 32.5789C18.225 32.7907 7.52085 33.6508 1.47917 35.295C1.47917 35.295 3.18751 36.648 3.69168 37.2071C3.94168 37.6273 4.53751 38.5039 5.09168 39.771C5.70418 41.1604 6.27502 42.4904 6.27502 42.4904C6.27502 42.4904 12.3792 40.4326 20.6417 38.7421C24.5167 37.9382 28.6751 37.4089 32.4793 37.581C45.1751 38.193 55.4251 43.2612 66.7835 47.3799C74.6627 49.077 93.8919 50.3672 99.3128 48.4815C99.3128 48.4815 100.413 44.4654 99.8294 36.6249ZM33.7918 14.3606C34.8334 14.3606 35.6376 14.4929 36.3543 14.6186L36.1001 15.6607C35.1251 19.6901 30.2042 26.1478 27.2876 26.1478C26.1876 26.1478 25.6626 25.4332 25.6626 23.8221C25.6626 19.9184 28.6792 14.3606 33.7918 14.3606ZM47.5168 0.0360035C42.9585 -0.0897088 39.0543 0.131942 35.2418 0.419757L34.1876 4.37638C35.7876 4.4624 37.6001 4.63112 38.8126 4.80314V4.84284L37.5876 9.71585C36.8094 9.61291 36.0223 9.55761 35.2334 9.55044C23.1834 9.55044 17.8042 16.8616 17.8042 24.8443C17.8042 29.3832 19.9917 31.5468 24.3376 31.5468C28.5876 31.5468 31.9376 28.619 34.2959 25.5688H34.4126C33.3668 27.8184 32.7168 29.5155 32.3876 31.034H39.8751L47.5126 0.0360035H47.5168ZM88.0919 16.4712C89.0836 12.5245 87.9961 9.55374 82.6586 9.55374C77.8252 9.55374 74.7627 12.1408 72.2335 15.6607L72.1752 15.621C72.4502 14.7708 72.6169 14.2283 72.6169 13.7122C72.6169 10.8671 70.5085 9.55374 67.2627 9.55374C62.4252 9.55374 59.7793 12.0647 57.3043 15.3332L57.1918 15.3299C58.1293 13.4607 58.8502 11.5519 59.2835 9.90111C55.334 9.79198 51.3797 9.91916 47.4543 10.2816L46.4085 14.2349C48.0085 14.3209 49.821 14.4929 51.0335 14.6616V14.784L47.0126 31.0373L54.4418 31.0439L55.871 25.2545C57.0918 20.2492 61.5377 15.1546 64.0752 15.1546C65.3377 15.1546 65.7169 15.9585 65.1668 18.079L62.3877 31.0373H69.8252L71.0127 25.3769C72.0544 20.3187 76.6335 15.1546 79.1669 15.1546C80.4211 15.1546 80.8169 15.9585 80.2627 18.079L77.5585 31.0373H85.0086L88.0919 16.4712Z" fill="black"/>
</svg>
