<svg width="21" height="20" viewBox="0 0 21 20" fill="none" xmlns="http://www.w3.org/2000/svg">
<path d="M10.4167 19.1146L8.90625 17.7604C7.15278 16.1806 5.70312 14.8177 4.55729 13.6719C3.41146 12.526 2.5 11.4974 1.82292 10.5859C1.14583 9.67448 0.672743 8.83681 0.403646 8.07292C0.134549 7.30903 0 6.52778 0 5.72917C0 4.09722 0.546875 2.73438 1.64062 1.64063C2.73437 0.546875 4.09722 0 5.72917 0C6.63194 0 7.49132 0.190972 8.30729 0.572917C9.12326 0.954861 9.82639 1.49306 10.4167 2.1875C11.0069 1.49306 11.7101 0.954861 12.526 0.572917C13.342 0.190972 14.2014 0 15.1042 0C16.7361 0 18.099 0.546875 19.1927 1.64063C20.2865 2.73438 20.8333 4.09722 20.8333 5.72917C20.8333 6.52778 20.6988 7.30903 20.4297 8.07292C20.1606 8.83681 19.6875 9.67448 19.0104 10.5859C18.3333 11.4974 17.4219 12.526 16.276 13.6719C15.1302 14.8177 13.6806 16.1806 11.9271 17.7604L10.4167 19.1146ZM10.4167 16.3021C12.0833 14.809 13.4549 13.5286 14.5312 12.4609C15.6076 11.3932 16.4583 10.4644 17.0833 9.67448C17.7083 8.88455 18.1424 8.18142 18.3854 7.5651C18.6285 6.94879 18.75 6.33681 18.75 5.72917C18.75 4.6875 18.4028 3.81944 17.7083 3.125C17.0139 2.43056 16.1458 2.08333 15.1042 2.08333C14.2882 2.08333 13.533 2.31337 12.8385 2.77344C12.1441 3.23351 11.6667 3.81944 11.4062 4.53125H9.42708C9.16667 3.81944 8.68924 3.23351 7.99479 2.77344C7.30035 2.31337 6.54514 2.08333 5.72917 2.08333C4.6875 2.08333 3.81944 2.43056 3.125 3.125C2.43056 3.81944 2.08333 4.6875 2.08333 5.72917C2.08333 6.33681 2.20486 6.94879 2.44792 7.5651C2.69097 8.18142 3.125 8.88455 3.75 9.67448C4.375 10.4644 5.22569 11.3932 6.30208 12.4609C7.37847 13.5286 8.75 14.809 10.4167 16.3021Z" fill="black"/>
</svg>
