<svg width="125" height="125" viewBox="0 0 125 125" fill="none" xmlns="http://www.w3.org/2000/svg">
<path d="M24.0625 94.375C29.375 90.3125 35.3125 87.1094 41.875 84.7656C48.4375 82.4219 55.3125 81.25 62.5 81.25C69.6875 81.25 76.5625 82.4219 83.125 84.7656C89.6875 87.1094 95.625 90.3125 100.938 94.375C104.583 90.1042 107.422 85.2604 109.453 79.8438C111.484 74.4271 112.5 68.6458 112.5 62.5C112.5 48.6458 107.63 36.849 97.8906 27.1094C88.151 17.3698 76.3542 12.5 62.5 12.5C48.6458 12.5 36.849 17.3698 27.1094 27.1094C17.3698 36.849 12.5 48.6458 12.5 62.5C12.5 68.6458 13.5156 74.4271 15.5469 79.8438C17.5781 85.2604 20.4167 90.1042 24.0625 94.375ZM62.5 68.75C56.3542 68.75 51.1719 66.6406 46.9531 62.4219C42.7344 58.2031 40.625 53.0208 40.625 46.875C40.625 40.7292 42.7344 35.5469 46.9531 31.3281C51.1719 27.1094 56.3542 25 62.5 25C68.6458 25 73.8281 27.1094 78.0469 31.3281C82.2656 35.5469 84.375 40.7292 84.375 46.875C84.375 53.0208 82.2656 58.2031 78.0469 62.4219C73.8281 66.6406 68.6458 68.75 62.5 68.75ZM62.5 125C53.8542 125 45.7292 123.359 38.125 120.078C30.5208 116.797 23.9062 112.344 18.2812 106.719C12.6562 101.094 8.20312 94.4792 4.92188 86.875C1.64062 79.2708 0 71.1458 0 62.5C0 53.8542 1.64062 45.7292 4.92188 38.125C8.20312 30.5208 12.6562 23.9062 18.2812 18.2812C23.9062 12.6562 30.5208 8.20312 38.125 4.92188C45.7292 1.64062 53.8542 0 62.5 0C71.1458 0 79.2708 1.64062 86.875 4.92188C94.4792 8.20312 101.094 12.6562 106.719 18.2812C112.344 23.9062 116.797 30.5208 120.078 38.125C123.359 45.7292 125 53.8542 125 62.5C125 71.1458 123.359 79.2708 120.078 86.875C116.797 94.4792 112.344 101.094 106.719 106.719C101.094 112.344 94.4792 116.797 86.875 120.078C79.2708 123.359 71.1458 125 62.5 125ZM62.5 112.5C68.0208 112.5 73.2292 111.693 78.125 110.078C83.0208 108.464 87.5 106.146 91.5625 103.125C87.5 100.104 83.0208 97.7865 78.125 96.1719C73.2292 94.5573 68.0208 93.75 62.5 93.75C56.9792 93.75 51.7708 94.5573 46.875 96.1719C41.9792 97.7865 37.5 100.104 33.4375 103.125C37.5 106.146 41.9792 108.464 46.875 110.078C51.7708 111.693 56.9792 112.5 62.5 112.5ZM62.5 56.25C65.2083 56.25 67.4479 55.3646 69.2188 53.5938C70.9896 51.8229 71.875 49.5833 71.875 46.875C71.875 44.1667 70.9896 41.9271 69.2188 40.1562C67.4479 38.3854 65.2083 37.5 62.5 37.5C59.7917 37.5 57.5521 38.3854 55.7812 40.1562C54.0104 41.9271 53.125 44.1667 53.125 46.875C53.125 49.5833 54.0104 51.8229 55.7812 53.5938C57.5521 55.3646 59.7917 56.25 62.5 56.25Z" fill="black"/>
</svg>
